# xmcd
#
# Track frame offsets:
#	150
#	11922
#	28266
#	41348
#	52566
#	63700
#	75537
#	86453
#	99840
#	110838
#	124552
#	138487
#	150851
#	161142
#	171202
#	184670
#	197488
#	220342
#	253763
#	264596
#	277286
#	290131
#	305208
#
# Disc length: 4244
#
# Revision: 1
# Processed by: cddbd v1.5.1PL0 Copyright (c) Steve Scherf et al.
# Submitted via: Feurio! 1.66 - http://www.feurio.com
# Normalized: r0:DSETVAR1
#
DISCID=4d109217
DTITLE=Various Artist - The Great Tomato Blues Package [CD2]
DYEAR=2002
DGENRE=blues
TTITLE0=Ike and Tina Turner - Poor Fool
TTITLE1=B.B. King - The Other Night Blues
TTITLE2=Brownie McGhee - The Blues Had A Baby
TTITLE3=Bo Diddley - Bo Diddley
TTITLE4=Little Richard - Lucille
TTITLE5=Etta James - I'd Rather Go Blind
TTITLE6=Wilbert Harrison - Kansas City
TTITLE7=Muddy Waters - Mannish Boy
TTITLE8=Jimmy Reed - Take Out Some Insurance
TTITLE9=Koko Taylor - Wang Dang Doodle
TTITLE10=Chuck Berry - In The Wee Wee Hours
TTITLE11='Fats' Domino - Blue Monday
TTITLE12=Don Gamer and Dee Dee Ford - I Need Your Lovin'
TTITLE13=Irma Thomas - Wish Someone Would Care
TTITLE14=Percy Sledge - When A Man Needs A Woman
TTITLE15=Carl Perkins - Honey Don't
TTITLE16=Jerry Lee Lewis - Whole Lotta Shaken' Goin On
TTITLE17=John Lee Hooker - Tupelo
TTITLE18=Arthur "Big Boy" Crudup - That's All Right
TTITLE19=Rocky Hill and Johnny Winter - Bad Girl Blues
TTITLE20=Townes van Zandt - Nothin'
TTITLE21=Mississippi John Hurt - Hot Time In The Old Town Tonight
TTITLE22=Leadbelly - Midnight Special
EXTD=
EXTT0=
EXTT1=
EXTT2=
EXTT3=
EXTT4=
EXTT5=
EXTT6=
EXTT7=
EXTT8=
EXTT9=
EXTT10=
EXTT11=
EXTT12=
EXTT13=
EXTT14=
EXTT15=
EXTT16=
EXTT17=
EXTT18=
EXTT19=
EXTT20=
EXTT21=
EXTT22=
PLAYORDER=
